<svg xmlns="http://www.w3.org/2000/svg" viewBox="0 0 256 256" role="img" aria-labelledby="title desc">
  <title id="title">Repixelizer monogram logo concept</title>
  <desc id="desc">A chunky pixel-art R monogram with a right-shifted phase ghost on a dark square badge.</desc>
  <defs>
    <filter id="goldGlow" x="-30%" y="-30%" width="160%" height="160%">
      <feGaussianBlur stdDeviation="3" result="blur" />
      <feMerge>
        <feMergeNode in="blur" />
        <feMergeNode in="SourceGraphic" />
      </feMerge>
    </filter>
    <pattern id="grid" width="12" height="12" patternUnits="userSpaceOnUse">
      <path d="M 12 0 L 0 0 0 12" fill="none" stroke="#ffd84a" stroke-opacity="0.08" stroke-width="1" />
    </pattern>
    <style>
      svg { shape-rendering: crispEdges; }
      .badge { fill: #0a1b2f; stroke: #ffd84a; stroke-width: 6; }
      .rim { fill: none; stroke: #1d4d75; stroke-width: 6; }
      .grid { fill: url(#grid); opacity: 0.32; }
      .ghost { fill: #8fe2c8; opacity: 0.28; }
      .glyph-main { fill: #fff4bf; }
      .glyph-accent { fill: #ffb72a; }
    </style>
  </defs>

  <rect class="badge" x="20" y="20" width="216" height="216" rx="26" />
  <rect class="rim" x="34" y="34" width="188" height="188" rx="18" />
  <rect class="grid" x="34" y="34" width="188" height="188" rx="18" />

  <g filter="url(#goldGlow)">
    <g transform="translate(18 0)">
      <rect class="ghost" x="56" y="44" width="32" height="168" />
      <rect class="ghost" x="56" y="44" width="112" height="32" />
      <rect class="ghost" x="144" y="44" width="56" height="84" />
      <rect class="ghost" x="56" y="124" width="112" height="32" />
      <rect class="ghost" x="112" y="156" width="56" height="32" />
      <rect class="ghost" x="144" y="184" width="56" height="28" />
    </g>

    <rect class="glyph-main" x="56" y="44" width="32" height="168" />
    <rect class="glyph-main" x="56" y="44" width="112" height="32" />
    <rect class="glyph-accent" x="144" y="44" width="56" height="84" />
    <rect class="glyph-main" x="56" y="124" width="112" height="32" />
    <rect class="glyph-main" x="112" y="156" width="56" height="32" />
    <rect class="glyph-accent" x="144" y="184" width="56" height="28" />
  </g>
</svg>
