<svg xmlns="http://www.w3.org/2000/svg" viewBox="0 0 256 256" role="img" aria-labelledby="title desc">
  <title id="title">Repixelizer monogram logo concept</title>
  <desc id="desc">A chunky pixel-art R monogram snapping into alignment on a dark square badge.</desc>
  <defs>
    <filter id="goldGlow" x="-30%" y="-30%" width="160%" height="160%">
      <feGaussianBlur stdDeviation="3" result="blur" />
      <feMerge>
        <feMergeNode in="blur" />
        <feMergeNode in="SourceGraphic" />
      </feMerge>
    </filter>
    <pattern id="grid" width="12" height="12" patternUnits="userSpaceOnUse">
      <path d="M 12 0 L 0 0 0 12" fill="none" stroke="#ffd84a" stroke-opacity="0.08" stroke-width="1" />
    </pattern>
    <style>
      .badge { fill: #0a1b2f; stroke: #ffd84a; stroke-width: 6; }
      .rim { fill: none; stroke: #1d4d75; stroke-width: 6; }
      .grid { fill: url(#grid); opacity: 0.32; }
      .ghost { fill: #8fe2c8; opacity: 0.34; }
      .tile-main { fill: #ffe48a; }
      .tile-accent { fill: #ffb72a; }
      .tile-core { fill: #fff7cf; }
    </style>
  </defs>

  <rect class="badge" x="20" y="20" width="216" height="216" rx="26" />
  <rect class="rim" x="34" y="34" width="188" height="188" rx="18" />
  <rect class="grid" x="34" y="34" width="188" height="188" rx="18" />

  <g filter="url(#goldGlow)">
    <rect class="ghost" x="52" y="60" width="22" height="22" />
    <rect class="ghost" x="52" y="84" width="22" height="22" />
    <rect class="ghost" x="40" y="108" width="22" height="22" />
    <rect class="ghost" x="52" y="132" width="22" height="22" />
    <rect class="ghost" x="64" y="156" width="22" height="22" />

    <rect class="tile-main" x="72" y="60" width="22" height="22" />
    <rect class="tile-main" x="72" y="84" width="22" height="22" />
    <rect class="tile-main" x="72" y="108" width="22" height="22" />
    <rect class="tile-main" x="72" y="132" width="22" height="22" />
    <rect class="tile-main" x="72" y="156" width="22" height="22" />
    <rect class="tile-main" x="72" y="180" width="22" height="22" />

    <rect class="tile-main" x="96" y="60" width="22" height="22" />
    <rect class="tile-main" x="120" y="60" width="22" height="22" />
    <rect class="tile-accent" x="144" y="60" width="22" height="22" />

    <rect class="tile-main" x="144" y="84" width="22" height="22" />
    <rect class="tile-main" x="96" y="108" width="22" height="22" />
    <rect class="tile-core" x="120" y="108" width="22" height="22" />
    <rect class="tile-main" x="144" y="108" width="22" height="22" />

    <rect class="tile-main" x="96" y="132" width="22" height="22" />
    <rect class="tile-accent" x="120" y="156" width="22" height="22" />
    <rect class="tile-main" x="144" y="180" width="22" height="22" />
  </g>
</svg>
