<svg xmlns="http://www.w3.org/2000/svg" viewBox="0 0 256 256" role="img" aria-labelledby="title desc">
  <title id="title">Repixelizer monogram logo concept</title>
  <desc id="desc">A discrete pixel-tile R monogram built from the reference mosaic, with a right-shifted phase ghost on a dark square badge.</desc>
  <defs>
    <pattern id="grid" width="12" height="12" patternUnits="userSpaceOnUse">
      <path d="M 12 0 L 0 0 0 12" fill="none" stroke="#ffd84a" stroke-opacity="0.08" stroke-width="1" />
    </pattern>
    <style>
      svg { shape-rendering: crispEdges; }
      .badge { fill: #0a1b2f; stroke: #ffd84a; stroke-width: 6; }
      .rim { fill: none; stroke: #1d4d75; stroke-width: 6; }
      .grid { fill: url(#grid); opacity: 0.32; }
      .ghost { fill: #8fe2c8; opacity: 0.2; }
      .tile-main { fill: #ffe48a; }
      .tile-accent { fill: #ffb72a; }
      .tile-core { fill: #fff7cf; }
    </style>
  </defs>

  <rect class="badge" x="20" y="20" width="216" height="216" rx="26" />
  <rect class="rim" x="34" y="34" width="188" height="188" rx="18" />
  <rect class="grid" x="34" y="34" width="188" height="188" rx="18" />

  <g transform="translate(42 44)">
    <g transform="translate(10 0)">
      <rect class="ghost" x="0" y="0" width="10" height="10" />
      <rect class="ghost" x="12" y="0" width="10" height="10" />
      <rect class="ghost" x="24" y="0" width="10" height="10" />
      <rect class="ghost" x="36" y="0" width="10" height="10" />
      <rect class="ghost" x="48" y="0" width="10" height="10" />
      <rect class="ghost" x="60" y="0" width="10" height="10" />
      <rect class="ghost" x="72" y="0" width="10" height="10" />
      <rect class="ghost" x="84" y="0" width="10" height="10" />
      <rect class="ghost" x="96" y="0" width="10" height="10" />
      <rect class="ghost" x="108" y="0" width="10" height="10" />
      <rect class="ghost" x="120" y="0" width="10" height="10" />
      <rect class="ghost" x="132" y="0" width="10" height="10" />
      <rect class="ghost" x="0" y="12" width="10" height="10" />
      <rect class="ghost" x="12" y="12" width="10" height="10" />
      <rect class="ghost" x="24" y="12" width="10" height="10" />
      <rect class="ghost" x="36" y="12" width="10" height="10" />
      <rect class="ghost" x="48" y="12" width="10" height="10" />
      <rect class="ghost" x="60" y="12" width="10" height="10" />
      <rect class="ghost" x="72" y="12" width="10" height="10" />
      <rect class="ghost" x="84" y="12" width="10" height="10" />
      <rect class="ghost" x="96" y="12" width="10" height="10" />
      <rect class="ghost" x="108" y="12" width="10" height="10" />
      <rect class="ghost" x="120" y="12" width="10" height="10" />
      <rect class="ghost" x="132" y="12" width="10" height="10" />
      <rect class="ghost" x="0" y="24" width="10" height="10" />
      <rect class="ghost" x="12" y="24" width="10" height="10" />
      <rect class="ghost" x="24" y="24" width="10" height="10" />
      <rect class="ghost" x="36" y="24" width="10" height="10" />
      <rect class="ghost" x="120" y="24" width="10" height="10" />
      <rect class="ghost" x="132" y="24" width="10" height="10" />
      <rect class="ghost" x="144" y="24" width="10" height="10" />
      <rect class="ghost" x="156" y="24" width="10" height="10" />
      <rect class="ghost" x="0" y="36" width="10" height="10" />
      <rect class="ghost" x="12" y="36" width="10" height="10" />
      <rect class="ghost" x="24" y="36" width="10" height="10" />
      <rect class="ghost" x="36" y="36" width="10" height="10" />
      <rect class="ghost" x="120" y="36" width="10" height="10" />
      <rect class="ghost" x="132" y="36" width="10" height="10" />
      <rect class="ghost" x="144" y="36" width="10" height="10" />
      <rect class="ghost" x="156" y="36" width="10" height="10" />
      <rect class="ghost" x="0" y="48" width="10" height="10" />
      <rect class="ghost" x="12" y="48" width="10" height="10" />
      <rect class="ghost" x="24" y="48" width="10" height="10" />
      <rect class="ghost" x="36" y="48" width="10" height="10" />
      <rect class="ghost" x="120" y="48" width="10" height="10" />
      <rect class="ghost" x="132" y="48" width="10" height="10" />
      <rect class="ghost" x="144" y="48" width="10" height="10" />
      <rect class="ghost" x="156" y="48" width="10" height="10" />
      <rect class="ghost" x="0" y="60" width="10" height="10" />
      <rect class="ghost" x="12" y="60" width="10" height="10" />
      <rect class="ghost" x="24" y="60" width="10" height="10" />
      <rect class="ghost" x="36" y="60" width="10" height="10" />
      <rect class="ghost" x="120" y="60" width="10" height="10" />
      <rect class="ghost" x="132" y="60" width="10" height="10" />
      <rect class="ghost" x="144" y="60" width="10" height="10" />
      <rect class="ghost" x="156" y="60" width="10" height="10" />
      <rect class="ghost" x="0" y="72" width="10" height="10" />
      <rect class="ghost" x="12" y="72" width="10" height="10" />
      <rect class="ghost" x="24" y="72" width="10" height="10" />
      <rect class="ghost" x="36" y="72" width="10" height="10" />
      <rect class="ghost" x="96" y="72" width="10" height="10" />
      <rect class="ghost" x="108" y="72" width="10" height="10" />
      <rect class="ghost" x="120" y="72" width="10" height="10" />
      <rect class="ghost" x="132" y="72" width="10" height="10" />
      <rect class="ghost" x="144" y="72" width="10" height="10" />
      <rect class="ghost" x="156" y="72" width="10" height="10" />
      <rect class="ghost" x="0" y="84" width="10" height="10" />
      <rect class="ghost" x="12" y="84" width="10" height="10" />
      <rect class="ghost" x="24" y="84" width="10" height="10" />
      <rect class="ghost" x="36" y="84" width="10" height="10" />
      <rect class="ghost" x="96" y="84" width="10" height="10" />
      <rect class="ghost" x="108" y="84" width="10" height="10" />
      <rect class="ghost" x="120" y="84" width="10" height="10" />
      <rect class="ghost" x="132" y="84" width="10" height="10" />
      <rect class="ghost" x="144" y="84" width="10" height="10" />
      <rect class="ghost" x="156" y="84" width="10" height="10" />
      <rect class="ghost" x="0" y="96" width="10" height="10" />
      <rect class="ghost" x="12" y="96" width="10" height="10" />
      <rect class="ghost" x="24" y="96" width="10" height="10" />
      <rect class="ghost" x="36" y="96" width="10" height="10" />
      <rect class="ghost" x="48" y="96" width="10" height="10" />
      <rect class="ghost" x="60" y="96" width="10" height="10" />
      <rect class="ghost" x="72" y="96" width="10" height="10" />
      <rect class="ghost" x="84" y="96" width="10" height="10" />
      <rect class="ghost" x="96" y="96" width="10" height="10" />
      <rect class="ghost" x="108" y="96" width="10" height="10" />
      <rect class="ghost" x="0" y="108" width="10" height="10" />
      <rect class="ghost" x="12" y="108" width="10" height="10" />
      <rect class="ghost" x="24" y="108" width="10" height="10" />
      <rect class="ghost" x="36" y="108" width="10" height="10" />
      <rect class="ghost" x="48" y="108" width="10" height="10" />
      <rect class="ghost" x="60" y="108" width="10" height="10" />
      <rect class="ghost" x="72" y="108" width="10" height="10" />
      <rect class="ghost" x="84" y="108" width="10" height="10" />
      <rect class="ghost" x="96" y="108" width="10" height="10" />
      <rect class="ghost" x="108" y="108" width="10" height="10" />
      <rect class="ghost" x="0" y="120" width="10" height="10" />
      <rect class="ghost" x="12" y="120" width="10" height="10" />
      <rect class="ghost" x="24" y="120" width="10" height="10" />
      <rect class="ghost" x="36" y="120" width="10" height="10" />
      <rect class="ghost" x="72" y="120" width="10" height="10" />
      <rect class="ghost" x="84" y="120" width="10" height="10" />
      <rect class="ghost" x="96" y="120" width="10" height="10" />
      <rect class="ghost" x="108" y="120" width="10" height="10" />
      <rect class="ghost" x="120" y="120" width="10" height="10" />
      <rect class="ghost" x="132" y="120" width="10" height="10" />
      <rect class="ghost" x="0" y="132" width="10" height="10" />
      <rect class="ghost" x="12" y="132" width="10" height="10" />
      <rect class="ghost" x="24" y="132" width="10" height="10" />
      <rect class="ghost" x="36" y="132" width="10" height="10" />
      <rect class="ghost" x="72" y="132" width="10" height="10" />
      <rect class="ghost" x="84" y="132" width="10" height="10" />
      <rect class="ghost" x="96" y="132" width="10" height="10" />
      <rect class="ghost" x="108" y="132" width="10" height="10" />
      <rect class="ghost" x="120" y="132" width="10" height="10" />
      <rect class="ghost" x="132" y="132" width="10" height="10" />
      <rect class="ghost" x="0" y="144" width="10" height="10" />
      <rect class="ghost" x="12" y="144" width="10" height="10" />
      <rect class="ghost" x="24" y="144" width="10" height="10" />
      <rect class="ghost" x="36" y="144" width="10" height="10" />
      <rect class="ghost" x="96" y="144" width="10" height="10" />
      <rect class="ghost" x="108" y="144" width="10" height="10" />
      <rect class="ghost" x="120" y="144" width="10" height="10" />
      <rect class="ghost" x="132" y="144" width="10" height="10" />
      <rect class="ghost" x="144" y="144" width="10" height="10" />
      <rect class="ghost" x="156" y="144" width="10" height="10" />
      <rect class="ghost" x="0" y="156" width="10" height="10" />
      <rect class="ghost" x="12" y="156" width="10" height="10" />
      <rect class="ghost" x="24" y="156" width="10" height="10" />
      <rect class="ghost" x="36" y="156" width="10" height="10" />
      <rect class="ghost" x="96" y="156" width="10" height="10" />
      <rect class="ghost" x="108" y="156" width="10" height="10" />
      <rect class="ghost" x="120" y="156" width="10" height="10" />
      <rect class="ghost" x="132" y="156" width="10" height="10" />
      <rect class="ghost" x="144" y="156" width="10" height="10" />
      <rect class="ghost" x="156" y="156" width="10" height="10" />
    </g>

    <rect class="tile-main" x="0" y="0" width="10" height="10" />
    <rect class="tile-main" x="12" y="0" width="10" height="10" />
    <rect class="tile-main" x="24" y="0" width="10" height="10" />
    <rect class="tile-main" x="36" y="0" width="10" height="10" />
    <rect class="tile-main" x="48" y="0" width="10" height="10" />
    <rect class="tile-main" x="60" y="0" width="10" height="10" />
    <rect class="tile-main" x="72" y="0" width="10" height="10" />
    <rect class="tile-main" x="84" y="0" width="10" height="10" />
    <rect class="tile-main" x="96" y="0" width="10" height="10" />
    <rect class="tile-main" x="108" y="0" width="10" height="10" />
    <rect class="tile-accent" x="120" y="0" width="10" height="10" />
    <rect class="tile-accent" x="132" y="0" width="10" height="10" />
    <rect class="tile-main" x="0" y="12" width="10" height="10" />
    <rect class="tile-main" x="12" y="12" width="10" height="10" />
    <rect class="tile-main" x="24" y="12" width="10" height="10" />
    <rect class="tile-main" x="36" y="12" width="10" height="10" />
    <rect class="tile-main" x="48" y="12" width="10" height="10" />
    <rect class="tile-main" x="60" y="12" width="10" height="10" />
    <rect class="tile-main" x="72" y="12" width="10" height="10" />
    <rect class="tile-main" x="84" y="12" width="10" height="10" />
    <rect class="tile-main" x="96" y="12" width="10" height="10" />
    <rect class="tile-main" x="108" y="12" width="10" height="10" />
    <rect class="tile-main" x="120" y="12" width="10" height="10" />
    <rect class="tile-main" x="132" y="12" width="10" height="10" />
    <rect class="tile-main" x="0" y="24" width="10" height="10" />
    <rect class="tile-main" x="12" y="24" width="10" height="10" />
    <rect class="tile-main" x="24" y="24" width="10" height="10" />
    <rect class="tile-main" x="36" y="24" width="10" height="10" />
    <rect class="tile-main" x="120" y="24" width="10" height="10" />
    <rect class="tile-main" x="132" y="24" width="10" height="10" />
    <rect class="tile-accent" x="144" y="24" width="10" height="10" />
    <rect class="tile-accent" x="156" y="24" width="10" height="10" />
    <rect class="tile-main" x="0" y="36" width="10" height="10" />
    <rect class="tile-main" x="12" y="36" width="10" height="10" />
    <rect class="tile-main" x="24" y="36" width="10" height="10" />
    <rect class="tile-main" x="36" y="36" width="10" height="10" />
    <rect class="tile-main" x="120" y="36" width="10" height="10" />
    <rect class="tile-main" x="132" y="36" width="10" height="10" />
    <rect class="tile-main" x="144" y="36" width="10" height="10" />
    <rect class="tile-main" x="156" y="36" width="10" height="10" />
    <rect class="tile-main" x="0" y="48" width="10" height="10" />
    <rect class="tile-main" x="12" y="48" width="10" height="10" />
    <rect class="tile-main" x="24" y="48" width="10" height="10" />
    <rect class="tile-main" x="36" y="48" width="10" height="10" />
    <rect class="tile-main" x="120" y="48" width="10" height="10" />
    <rect class="tile-main" x="132" y="48" width="10" height="10" />
    <rect class="tile-main" x="144" y="48" width="10" height="10" />
    <rect class="tile-main" x="156" y="48" width="10" height="10" />
    <rect class="tile-main" x="0" y="60" width="10" height="10" />
    <rect class="tile-main" x="12" y="60" width="10" height="10" />
    <rect class="tile-main" x="24" y="60" width="10" height="10" />
    <rect class="tile-main" x="36" y="60" width="10" height="10" />
    <rect class="tile-main" x="120" y="60" width="10" height="10" />
    <rect class="tile-main" x="132" y="60" width="10" height="10" />
    <rect class="tile-main" x="144" y="60" width="10" height="10" />
    <rect class="tile-main" x="156" y="60" width="10" height="10" />
    <rect class="tile-main" x="0" y="72" width="10" height="10" />
    <rect class="tile-main" x="12" y="72" width="10" height="10" />
    <rect class="tile-main" x="24" y="72" width="10" height="10" />
    <rect class="tile-main" x="36" y="72" width="10" height="10" />
    <rect class="tile-main" x="96" y="72" width="10" height="10" />
    <rect class="tile-main" x="108" y="72" width="10" height="10" />
    <rect class="tile-main" x="120" y="72" width="10" height="10" />
    <rect class="tile-main" x="132" y="72" width="10" height="10" />
    <rect class="tile-accent" x="144" y="72" width="10" height="10" />
    <rect class="tile-accent" x="156" y="72" width="10" height="10" />
    <rect class="tile-main" x="0" y="84" width="10" height="10" />
    <rect class="tile-main" x="12" y="84" width="10" height="10" />
    <rect class="tile-main" x="24" y="84" width="10" height="10" />
    <rect class="tile-main" x="36" y="84" width="10" height="10" />
    <rect class="tile-main" x="96" y="84" width="10" height="10" />
    <rect class="tile-main" x="108" y="84" width="10" height="10" />
    <rect class="tile-main" x="120" y="84" width="10" height="10" />
    <rect class="tile-main" x="132" y="84" width="10" height="10" />
    <rect class="tile-main" x="144" y="84" width="10" height="10" />
    <rect class="tile-main" x="156" y="84" width="10" height="10" />
    <rect class="tile-main" x="0" y="96" width="10" height="10" />
    <rect class="tile-main" x="12" y="96" width="10" height="10" />
    <rect class="tile-main" x="24" y="96" width="10" height="10" />
    <rect class="tile-main" x="36" y="96" width="10" height="10" />
    <rect class="tile-main" x="48" y="96" width="10" height="10" />
    <rect class="tile-main" x="60" y="96" width="10" height="10" />
    <rect class="tile-main" x="72" y="96" width="10" height="10" />
    <rect class="tile-main" x="84" y="96" width="10" height="10" />
    <rect class="tile-core" x="96" y="96" width="10" height="10" />
    <rect class="tile-core" x="108" y="96" width="10" height="10" />
    <rect class="tile-main" x="0" y="108" width="10" height="10" />
    <rect class="tile-main" x="12" y="108" width="10" height="10" />
    <rect class="tile-main" x="24" y="108" width="10" height="10" />
    <rect class="tile-main" x="36" y="108" width="10" height="10" />
    <rect class="tile-main" x="48" y="108" width="10" height="10" />
    <rect class="tile-main" x="60" y="108" width="10" height="10" />
    <rect class="tile-main" x="72" y="108" width="10" height="10" />
    <rect class="tile-main" x="84" y="108" width="10" height="10" />
    <rect class="tile-core" x="96" y="108" width="10" height="10" />
    <rect class="tile-core" x="108" y="108" width="10" height="10" />
    <rect class="tile-main" x="0" y="120" width="10" height="10" />
    <rect class="tile-main" x="12" y="120" width="10" height="10" />
    <rect class="tile-main" x="24" y="120" width="10" height="10" />
    <rect class="tile-main" x="36" y="120" width="10" height="10" />
    <rect class="tile-main" x="72" y="120" width="10" height="10" />
    <rect class="tile-main" x="84" y="120" width="10" height="10" />
    <rect class="tile-main" x="96" y="120" width="10" height="10" />
    <rect class="tile-main" x="108" y="120" width="10" height="10" />
    <rect class="tile-main" x="120" y="120" width="10" height="10" />
    <rect class="tile-main" x="132" y="120" width="10" height="10" />
    <rect class="tile-main" x="0" y="132" width="10" height="10" />
    <rect class="tile-main" x="12" y="132" width="10" height="10" />
    <rect class="tile-main" x="24" y="132" width="10" height="10" />
    <rect class="tile-main" x="36" y="132" width="10" height="10" />
    <rect class="tile-main" x="72" y="132" width="10" height="10" />
    <rect class="tile-main" x="84" y="132" width="10" height="10" />
    <rect class="tile-main" x="96" y="132" width="10" height="10" />
    <rect class="tile-main" x="108" y="132" width="10" height="10" />
    <rect class="tile-main" x="120" y="132" width="10" height="10" />
    <rect class="tile-main" x="132" y="132" width="10" height="10" />
    <rect class="tile-main" x="0" y="144" width="10" height="10" />
    <rect class="tile-main" x="12" y="144" width="10" height="10" />
    <rect class="tile-main" x="24" y="144" width="10" height="10" />
    <rect class="tile-main" x="36" y="144" width="10" height="10" />
    <rect class="tile-main" x="96" y="144" width="10" height="10" />
    <rect class="tile-main" x="108" y="144" width="10" height="10" />
    <rect class="tile-main" x="120" y="144" width="10" height="10" />
    <rect class="tile-main" x="132" y="144" width="10" height="10" />
    <rect class="tile-accent" x="144" y="144" width="10" height="10" />
    <rect class="tile-accent" x="156" y="144" width="10" height="10" />
    <rect class="tile-main" x="0" y="156" width="10" height="10" />
    <rect class="tile-main" x="12" y="156" width="10" height="10" />
    <rect class="tile-main" x="24" y="156" width="10" height="10" />
    <rect class="tile-main" x="36" y="156" width="10" height="10" />
    <rect class="tile-main" x="96" y="156" width="10" height="10" />
    <rect class="tile-main" x="108" y="156" width="10" height="10" />
    <rect class="tile-main" x="120" y="156" width="10" height="10" />
    <rect class="tile-main" x="132" y="156" width="10" height="10" />
    <rect class="tile-accent" x="144" y="156" width="10" height="10" />
    <rect class="tile-accent" x="156" y="156" width="10" height="10" />
  </g>
</svg>
